<svg width="76" height="76" viewBox="0 0 76 76" fill="none" xmlns="http://www.w3.org/2000/svg">
<g filter="url(#filter0_d_1256_34572)">
<circle cx="33" cy="32" r="27" fill="#2F66DB"/>
<path opacity="0.4" d="M33 44.5C39.9036 44.5 45.5 38.9036 45.5 32C45.5 25.0964 39.9036 19.5 33 19.5C26.0964 19.5 20.5 25.0964 20.5 32C20.5 38.9036 26.0964 44.5 33 44.5Z" fill="white"/>
<path d="M38 31.0625H33.9375V27C33.9375 26.4875 33.5125 26.0625 33 26.0625C32.4875 26.0625 32.0625 26.4875 32.0625 27V31.0625H28C27.4875 31.0625 27.0625 31.4875 27.0625 32C27.0625 32.5125 27.4875 32.9375 28 32.9375H32.0625V37C32.0625 37.5125 32.4875 37.9375 33 37.9375C33.5125 37.9375 33.9375 37.5125 33.9375 37V32.9375H38C38.5125 32.9375 38.9375 32.5125 38.9375 32C38.9375 31.4875 38.5125 31.0625 38 31.0625Z" fill="white"/>
</g>
<defs>
<filter id="filter0_d_1256_34572" x="0" y="0" width="76" height="76" filterUnits="userSpaceOnUse" color-interpolation-filters="sRGB">
<feFlood flood-opacity="0" result="BackgroundImageFix"/>
<feColorMatrix in="SourceAlpha" type="matrix" values="0 0 0 0 0 0 0 0 0 0 0 0 0 0 0 0 0 0 127 0" result="hardAlpha"/>
<feMorphology radius="9" operator="erode" in="SourceAlpha" result="effect1_dropShadow_1256_34572"/>
<feOffset dx="5" dy="6"/>
<feGaussianBlur stdDeviation="10"/>
<feComposite in2="hardAlpha" operator="out"/>
<feColorMatrix type="matrix" values="0 0 0 0 0.352941 0 0 0 0 0.541176 0 0 0 0 0.941176 0 0 0 0.28 0"/>
<feBlend mode="normal" in2="BackgroundImageFix" result="effect1_dropShadow_1256_34572"/>
<feBlend mode="normal" in="SourceGraphic" in2="effect1_dropShadow_1256_34572" result="shape"/>
</filter>
</defs>
</svg>
