<svg width="30" height="30" viewBox="0 0 30 30" fill="none" xmlns="http://www.w3.org/2000/svg">
<path opacity="0.4" d="M21.9123 9.71251C21.8248 9.70001 21.7373 9.70001 21.6498 9.71251C19.7123 9.65001 18.1748 8.0625 18.1748 6.1125C18.1748 4.125 19.7873 2.5 21.7873 2.5C23.7748 2.5 25.3998 4.1125 25.3998 6.1125C25.3873 8.0625 23.8498 9.65001 21.9123 9.71251Z" fill="#2F66DB"/>
<path opacity="0.4" d="M25.9875 18.3735C24.5875 19.311 22.625 19.661 20.8125 19.4235C21.2875 18.3985 21.5375 17.2611 21.55 16.0611C21.55 14.8111 21.275 13.6236 20.75 12.5861C22.6 12.3361 24.5625 12.686 25.975 13.6235C27.95 14.9235 27.95 17.061 25.9875 18.3735Z" fill="#2F66DB"/>
<path opacity="0.4" d="M8.05 9.71251C8.1375 9.70001 8.225 9.70001 8.3125 9.71251C10.25 9.65001 11.7875 8.0625 11.7875 6.1125C11.7875 4.125 10.175 2.5 8.175 2.5C6.1875 2.5 4.5625 4.1125 4.5625 6.1125C4.575 8.0625 6.1125 9.65001 8.05 9.71251Z" fill="#2F66DB"/>
<path opacity="0.4" d="M8.1874 16.0613C8.1874 17.2738 8.4499 18.4238 8.9249 19.4613C7.1624 19.6488 5.3249 19.2738 3.9749 18.3863C1.9999 17.0738 1.9999 14.9363 3.9749 13.6238C5.3124 12.7238 7.1999 12.3613 8.9749 12.5613C8.4624 13.6113 8.1874 14.7988 8.1874 16.0613Z" fill="#2F66DB"/>
<path d="M15.15 19.8375C15.05 19.825 14.9375 19.825 14.825 19.8375C12.525 19.7625 10.6875 17.875 10.6875 15.55C10.6875 13.175 12.6 11.25 14.9875 11.25C17.3625 11.25 19.2875 13.175 19.2875 15.55C19.2875 17.875 17.4625 19.7625 15.15 19.8375Z" fill="#2F66DB"/>
<path d="M11.0875 22.4258C9.2 23.6883 9.2 25.7633 11.0875 27.0133C13.2375 28.4508 16.7625 28.4508 18.9125 27.0133C20.8 25.7508 20.8 23.6758 18.9125 22.4258C16.775 20.9883 13.25 20.9883 11.0875 22.4258Z" fill="#2F66DB"/>
</svg>
