<svg width="76" height="76" viewBox="0 0 76 76" fill="none" xmlns="http://www.w3.org/2000/svg">
<g filter="url(#filter0_d_1467_32635)">
<circle cx="33" cy="32" r="27" fill="#2F66DB"/>
<path d="M38.9378 21.45V19.5C38.9378 18.9875 38.5128 18.5625 38.0003 18.5625C37.4878 18.5625 37.0628 18.9875 37.0628 19.5V21.375H28.9378V19.5C28.9378 18.9875 28.5128 18.5625 28.0003 18.5625C27.4878 18.5625 27.0628 18.9875 27.0628 19.5V21.45C23.6878 21.7625 22.0503 23.775 21.8003 26.7625C21.7753 27.125 22.0753 27.425 22.4253 27.425H43.5753C43.9378 27.425 44.2378 27.1125 44.2003 26.7625C43.9503 23.775 42.3128 21.7625 38.9378 21.45Z" fill="white"/>
<path opacity="0.4" d="M43 29.3008C43.6875 29.3008 44.25 29.8633 44.25 30.5508V38.2508C44.25 42.0008 42.375 44.5008 38 44.5008H28C23.625 44.5008 21.75 42.0008 21.75 38.2508V30.5508C21.75 29.8633 22.3125 29.3008 23 29.3008H43Z" fill="white"/>
<path d="M28.625 35.7487C28.3 35.7487 27.975 35.6112 27.7375 35.3862C27.5125 35.1487 27.375 34.8237 27.375 34.4987C27.375 34.1737 27.5125 33.8487 27.7375 33.6112C28.0875 33.2612 28.6375 33.1488 29.1 33.3488C29.2625 33.4113 29.4 33.4987 29.5125 33.6112C29.7375 33.8487 29.875 34.1737 29.875 34.4987C29.875 34.8237 29.7375 35.1487 29.5125 35.3862C29.275 35.6112 28.95 35.7487 28.625 35.7487ZM33 35.7487C32.675 35.7487 32.35 35.6112 32.1125 35.3862C31.8875 35.1487 31.75 34.8237 31.75 34.4987C31.75 34.1737 31.8875 33.8487 32.1125 33.6112C32.225 33.4987 32.3625 33.4113 32.525 33.3488C32.9875 33.1488 33.5375 33.2612 33.8875 33.6112C34.1125 33.8487 34.25 34.1737 34.25 34.4987C34.25 34.8237 34.1125 35.1487 33.8875 35.3862L33.7 35.5363C33.625 35.5863 33.55 35.6237 33.475 35.6487C33.4 35.6862 33.325 35.7112 33.25 35.7237C33.1625 35.7362 33.0875 35.7487 33 35.7487ZM37.375 35.75C37.05 35.75 36.725 35.6125 36.4875 35.3875C36.2625 35.15 36.125 34.825 36.125 34.5C36.125 34.175 36.2625 33.85 36.4875 33.6125C36.6125 33.5 36.7375 33.4125 36.9 33.35C37.125 33.25 37.375 33.225 37.625 33.275C37.7 33.2875 37.775 33.3125 37.85 33.35C37.925 33.375 38 33.4125 38.075 33.4625L38.2625 33.6125C38.4875 33.85 38.625 34.175 38.625 34.5C38.625 34.825 38.4875 35.15 38.2625 35.3875L38.075 35.5375C38 35.5875 37.925 35.625 37.85 35.65C37.775 35.6875 37.7 35.7125 37.625 35.725C37.5375 35.7375 37.45 35.75 37.375 35.75ZM28.625 40.125C28.4625 40.125 28.3 40.0875 28.15 40.025C27.9875 39.9625 27.8625 39.875 27.7375 39.7625C27.5125 39.525 27.375 39.2 27.375 38.875C27.375 38.55 27.5125 38.225 27.7375 37.9875C27.8625 37.875 27.9875 37.7875 28.15 37.725C28.375 37.625 28.625 37.6 28.875 37.65C28.95 37.6625 29.025 37.6875 29.1 37.725C29.175 37.75 29.25 37.7875 29.325 37.8375L29.5125 37.9875C29.7375 38.225 29.875 38.55 29.875 38.875C29.875 39.2 29.7375 39.525 29.5125 39.7625C29.45 39.8125 29.3875 39.875 29.325 39.9125C29.25 39.9625 29.175 40 29.1 40.025C29.025 40.0625 28.95 40.0875 28.875 40.1C28.7875 40.1125 28.7125 40.125 28.625 40.125ZM33 40.125C32.675 40.125 32.35 39.9875 32.1125 39.7625C31.8875 39.525 31.75 39.2 31.75 38.875C31.75 38.55 31.8875 38.225 32.1125 37.9875C32.575 37.525 33.425 37.525 33.8875 37.9875C34.1125 38.225 34.25 38.55 34.25 38.875C34.25 39.2 34.1125 39.525 33.8875 39.7625C33.65 39.9875 33.325 40.125 33 40.125ZM37.375 40.125C37.05 40.125 36.725 39.9875 36.4875 39.7625C36.2625 39.525 36.125 39.2 36.125 38.875C36.125 38.55 36.2625 38.225 36.4875 37.9875C36.95 37.525 37.8 37.525 38.2625 37.9875C38.4875 38.225 38.625 38.55 38.625 38.875C38.625 39.2 38.4875 39.525 38.2625 39.7625C38.025 39.9875 37.7 40.125 37.375 40.125Z" fill="white"/>
</g>
<defs>
<filter id="filter0_d_1467_32635" x="0" y="0" width="76" height="76" filterUnits="userSpaceOnUse" color-interpolation-filters="sRGB">
<feFlood flood-opacity="0" result="BackgroundImageFix"/>
<feColorMatrix in="SourceAlpha" type="matrix" values="0 0 0 0 0 0 0 0 0 0 0 0 0 0 0 0 0 0 127 0" result="hardAlpha"/>
<feMorphology radius="9" operator="erode" in="SourceAlpha" result="effect1_dropShadow_1467_32635"/>
<feOffset dx="5" dy="6"/>
<feGaussianBlur stdDeviation="10"/>
<feComposite in2="hardAlpha" operator="out"/>
<feColorMatrix type="matrix" values="0 0 0 0 0.352941 0 0 0 0 0.541176 0 0 0 0 0.941176 0 0 0 0.28 0"/>
<feBlend mode="normal" in2="BackgroundImageFix" result="effect1_dropShadow_1467_32635"/>
<feBlend mode="normal" in="SourceGraphic" in2="effect1_dropShadow_1467_32635" result="shape"/>
</filter>
</defs>
</svg>
