<svg width="30" height="30" viewBox="0 0 30 30" fill="none" xmlns="http://www.w3.org/2000/svg">
<path opacity="0.4" d="M15 27.5C21.9036 27.5 27.5 21.9036 27.5 15C27.5 8.09644 21.9036 2.5 15 2.5C8.09644 2.5 2.5 8.09644 2.5 15C2.5 21.9036 8.09644 27.5 15 27.5Z" fill="#2F66DB"/>
<path d="M17.0888 14.9985C17.0888 16.1535 16.1554 17.0868 15.0004 17.0868C13.8454 17.0868 12.9121 16.1535 12.9121 14.9985C12.9121 13.8435 13.8454 12.9102 15.0004 12.9102C16.1554 12.9102 17.0888 13.8435 17.0888 14.9985Z" stroke="#2F66DB" stroke-width="1.5" stroke-linecap="round" stroke-linejoin="round"/>
<path d="M15.0009 19.826C17.0601 19.826 18.9792 18.6127 20.3151 16.5127C20.8401 15.6902 20.8401 14.3077 20.3151 13.4852C18.9792 11.3852 17.0601 10.1719 15.0009 10.1719C12.9417 10.1719 11.0226 11.3852 9.68672 13.4852C9.16172 14.3077 9.16172 15.6902 9.68672 16.5127C11.0226 18.6127 12.9417 19.826 15.0009 19.826Z" stroke="#2F66DB" stroke-width="1.5" stroke-linecap="round" stroke-linejoin="round"/>
</svg>
