<svg width="54" height="54" viewBox="0 0 54 54" fill="none" xmlns="http://www.w3.org/2000/svg">
<circle cx="27" cy="27" r="27" fill="#2F66DB"/>
<path d="M16.0375 13.25H26.2C27.05 13.25 27.7375 13.95 27.7375 14.8125V16.525C27.7375 17.15 27.35 17.925 26.9625 18.3125L23.65 21.275C23.1875 21.6625 22.875 22.45 22.875 23.0625V26.4125C22.875 26.875 22.5625 27.5 22.1875 27.7375L21.1125 28.4375C20.1125 29.0625 18.725 28.3625 18.725 27.1125V22.975C18.725 22.425 18.4125 21.725 18.1125 21.3375L15.1875 18.2125C14.8 17.825 14.5 17.125 14.5 16.65V14.8625C14.5 13.95 15.1875 13.25 16.0375 13.25Z" fill="white"/>
<path opacity="0.4" d="M33.25 14.5H30.25C29.9 14.5 29.625 14.775 29.625 15.125V16.525C29.625 17.7625 28.9625 18.975 28.3125 19.6375L24.9125 22.675C24.875 22.7625 24.8125 22.8875 24.775 22.9875V26.425C24.775 27.5625 24.1 28.8 23.175 29.3625L22.15 30.025C21.575 30.3875 20.9375 30.5625 20.3 30.5625C19.725 30.5625 19.15 30.4125 18.625 30.125C17.8125 29.675 17.25 28.9375 17 28.0875V24.7625C17.001 24.6805 16.9848 24.5993 16.9525 24.5239C16.9202 24.4486 16.8725 24.3808 16.8125 24.325L15.5625 23.075C15.1625 22.6875 14.5 22.9625 14.5 23.5125V33.25C14.5 36.7 17.3 39.5 20.75 39.5H33.25C36.7 39.5 39.5 36.7 39.5 33.25V20.75C39.5 17.3 36.7 14.5 33.25 14.5Z" fill="white"/>
<path d="M34.5 29.1875H28.25C27.7375 29.1875 27.3125 28.7625 27.3125 28.25C27.3125 27.7375 27.7375 27.3125 28.25 27.3125H34.5C35.0125 27.3125 35.4375 27.7375 35.4375 28.25C35.4375 28.7625 35.0125 29.1875 34.5 29.1875ZM34.5 34.1875H25.75C25.2375 34.1875 24.8125 33.7625 24.8125 33.25C24.8125 32.7375 25.2375 32.3125 25.75 32.3125H34.5C35.0125 32.3125 35.4375 32.7375 35.4375 33.25C35.4375 33.7625 35.0125 34.1875 34.5 34.1875Z" fill="white"/>
</svg>
