<svg width="30" height="30" viewBox="0 0 30 30" fill="none" xmlns="http://www.w3.org/2000/svg">
<path opacity="0.4" d="M27.0626 12.5384C26.5751 11.8384 25.7126 11.4384 24.7251 11.4384H19.6001C19.2626 11.4384 18.9501 11.3009 18.7376 11.0509C18.5126 10.8009 18.4251 10.4509 18.4751 10.0884L19.1126 5.98838C19.3876 4.76338 18.5751 3.38838 17.3501 2.97588C16.2126 2.55088 14.8751 3.12588 14.3376 3.93838L9.0626 11.7759L8.9126 12.0259V23.0759L9.1001 23.2634L13.0626 26.3259C13.5876 26.8509 14.7751 27.1384 15.6126 27.1384H20.4876C22.1626 27.1384 23.8501 25.8759 24.2251 24.3384L27.3001 14.9759C27.6251 14.0884 27.5376 13.2259 27.0626 12.5384Z" fill="#2F66DB"/>
<path d="M6.5125 7.97461H5.225C3.2875 7.97461 2.5 8.72461 2.5 10.5746V23.1496C2.5 24.9996 3.2875 25.7496 5.225 25.7496H6.5125C8.45 25.7496 9.2375 24.9996 9.2375 23.1496V10.5746C9.2375 8.72461 8.45 7.97461 6.5125 7.97461Z" fill="#2F66DB"/>
</svg>
