<svg width="30" height="30" viewBox="0 0 30 30" fill="none" xmlns="http://www.w3.org/2000/svg">
<path opacity="0.4" d="M21.25 23.0375H16.25L10.6875 26.7375C9.86248 27.2875 8.75 26.7 8.75 25.7V23.0375C5 23.0375 2.5 20.5375 2.5 16.7875V9.28749C2.5 5.53749 5 3.03749 8.75 3.03749H21.25C25 3.03749 27.5 5.53749 27.5 9.28749V16.7875C27.5 20.5375 25 23.0375 21.25 23.0375Z" fill="#2F66DB"/>
<path d="M15 15.1375C14.4875 15.1375 14.0625 14.7125 14.0625 14.2V13.9375C14.0625 12.4875 15.125 11.775 15.525 11.5C15.9875 11.1875 16.1375 10.975 16.1375 10.65C16.1375 10.025 15.625 9.51248 15 9.51248C14.375 9.51248 13.8625 10.025 13.8625 10.65C13.8625 11.1625 13.4375 11.5875 12.925 11.5875C12.4125 11.5875 11.9875 11.1625 11.9875 10.65C11.9875 8.98752 13.3375 7.63748 15 7.63748C16.6625 7.63748 18.0125 8.98752 18.0125 10.65C18.0125 12.075 16.9625 12.7875 16.575 13.05C16.0875 13.375 15.9375 13.5875 15.9375 13.9375V14.2C15.9375 14.725 15.5125 15.1375 15 15.1375Z" fill="#2F66DB"/>
<path d="M15 18.25C14.475 18.25 14.0625 17.825 14.0625 17.3125C14.0625 16.8 14.4875 16.375 15 16.375C15.5125 16.375 15.9375 16.8 15.9375 17.3125C15.9375 17.825 15.525 18.25 15 18.25Z" fill="#2F66DB"/>
</svg>
