<svg width="30" height="30" viewBox="0 0 30 30" fill="none" xmlns="http://www.w3.org/2000/svg">
<path opacity="0.4" d="M27.0752 13.0482L25.8502 18.2732C24.8002 22.7857 22.7252 24.6107 18.8252 24.2357C18.2002 24.1857 17.5252 24.0732 16.8002 23.8982L14.7002 23.3982C9.48772 22.1607 7.87522 19.5857 9.10022 14.3607L10.3252 9.12318C10.5752 8.06068 10.8752 7.13568 11.2502 6.37318C12.7127 3.34818 15.2002 2.53568 19.3752 3.52318L21.4627 4.01068C26.7002 5.23568 28.3002 7.82318 27.0752 13.0482Z" fill="#2F66DB"/>
<path d="M18.8225 24.2395C18.0475 24.7645 17.0725 25.202 15.885 25.5895L13.91 26.2395C8.9475 27.8395 6.335 26.502 4.7225 21.5395L3.1225 16.602C1.5225 11.6395 2.8475 9.01445 7.81 7.41445L9.785 6.76445C10.2975 6.60195 10.785 6.46445 11.2475 6.37695C10.8725 7.13945 10.5725 8.06445 10.3225 9.12695L9.0975 14.3645C7.8725 19.5895 9.485 22.1645 14.6975 23.402L16.7975 23.902C17.5225 24.077 18.1975 24.1895 18.8225 24.2395ZM21.8625 13.1395C21.7875 13.1395 21.7125 13.127 21.625 13.1145L15.5625 11.577C15.3369 11.5026 15.148 11.3454 15.0339 11.1371C14.9198 10.9288 14.889 10.6849 14.9477 10.4548C15.0064 10.2247 15.1503 10.0254 15.3503 9.89728C15.5502 9.76914 15.7914 9.72166 16.025 9.76445L22.0875 11.302C22.3048 11.3606 22.4936 11.4957 22.6194 11.6824C22.7451 11.8691 22.7992 12.0949 22.7719 12.3183C22.7445 12.5417 22.6375 12.7477 22.4704 12.8986C22.3034 13.0494 22.0875 13.135 21.8625 13.1395Z" fill="#2F66DB"/>
<path d="M18.201 17.3618C18.126 17.3618 18.051 17.3493 17.9635 17.3368L14.326 16.4118C14.1005 16.3374 13.9116 16.1802 13.7974 15.9719C13.6833 15.7637 13.6525 15.5198 13.7112 15.2897C13.77 15.0596 13.9138 14.8603 14.1138 14.7322C14.3138 14.604 14.5549 14.5565 14.7885 14.5993L18.426 15.5243C18.926 15.6493 19.226 16.1618 19.101 16.6618C19.001 17.0868 18.626 17.3618 18.201 17.3618Z" fill="#2F66DB"/>
</svg>
