<svg width="76" height="76" viewBox="0 0 76 76" fill="none" xmlns="http://www.w3.org/2000/svg">
<g filter="url(#filter0_d_245_8212)">
<circle cx="33" cy="32" r="27" fill="#2F66DB"/>
<path d="M22.0375 18.25H32.2C33.05 18.25 33.7375 18.95 33.7375 19.8125V21.525C33.7375 22.15 33.35 22.925 32.9625 23.3125L29.65 26.275C29.1875 26.6625 28.875 27.45 28.875 28.0625V31.4125C28.875 31.875 28.5625 32.5 28.1875 32.7375L27.1125 33.4375C26.1125 34.0625 24.725 33.3625 24.725 32.1125V27.975C24.725 27.425 24.4125 26.725 24.1125 26.3375L21.1875 23.2125C20.8 22.825 20.5 22.125 20.5 21.65V19.8625C20.5 18.95 21.1875 18.25 22.0375 18.25Z" fill="white"/>
<path opacity="0.4" d="M39.25 19.5H36.25C35.9 19.5 35.625 19.775 35.625 20.125V21.525C35.625 22.7625 34.9625 23.975 34.3125 24.6375L30.9125 27.675C30.875 27.7625 30.8125 27.8875 30.775 27.9875V31.425C30.775 32.5625 30.1 33.8 29.175 34.3625L28.15 35.025C27.575 35.3875 26.9375 35.5625 26.3 35.5625C25.725 35.5625 25.15 35.4125 24.625 35.125C23.8125 34.675 23.25 33.9375 23 33.0875V29.7625C23.001 29.6805 22.9848 29.5993 22.9525 29.5239C22.9202 29.4486 22.8725 29.3808 22.8125 29.325L21.5625 28.075C21.1625 27.6875 20.5 27.9625 20.5 28.5125V38.25C20.5 41.7 23.3 44.5 26.75 44.5H39.25C42.7 44.5 45.5 41.7 45.5 38.25V25.75C45.5 22.3 42.7 19.5 39.25 19.5Z" fill="white"/>
<path d="M40.5 34.1875H34.25C33.7375 34.1875 33.3125 33.7625 33.3125 33.25C33.3125 32.7375 33.7375 32.3125 34.25 32.3125H40.5C41.0125 32.3125 41.4375 32.7375 41.4375 33.25C41.4375 33.7625 41.0125 34.1875 40.5 34.1875ZM40.5 39.1875H31.75C31.2375 39.1875 30.8125 38.7625 30.8125 38.25C30.8125 37.7375 31.2375 37.3125 31.75 37.3125H40.5C41.0125 37.3125 41.4375 37.7375 41.4375 38.25C41.4375 38.7625 41.0125 39.1875 40.5 39.1875Z" fill="white"/>
</g>
<defs>
<filter id="filter0_d_245_8212" x="0" y="0" width="76" height="76" filterUnits="userSpaceOnUse" color-interpolation-filters="sRGB">
<feFlood flood-opacity="0" result="BackgroundImageFix"/>
<feColorMatrix in="SourceAlpha" type="matrix" values="0 0 0 0 0 0 0 0 0 0 0 0 0 0 0 0 0 0 127 0" result="hardAlpha"/>
<feMorphology radius="9" operator="erode" in="SourceAlpha" result="effect1_dropShadow_245_8212"/>
<feOffset dx="5" dy="6"/>
<feGaussianBlur stdDeviation="10"/>
<feComposite in2="hardAlpha" operator="out"/>
<feColorMatrix type="matrix" values="0 0 0 0 0.352941 0 0 0 0 0.541176 0 0 0 0 0.941176 0 0 0 0.28 0"/>
<feBlend mode="normal" in2="BackgroundImageFix" result="effect1_dropShadow_245_8212"/>
<feBlend mode="normal" in="SourceGraphic" in2="effect1_dropShadow_245_8212" result="shape"/>
</filter>
</defs>
</svg>
