<svg width="50" height="50" viewBox="0 0 50 50" fill="none" xmlns="http://www.w3.org/2000/svg">
<circle cx="25" cy="25" r="25" fill="#008C72"/>
<path opacity="0.4" d="M34.1875 17.0749L26.325 12.8375C25.5 12.3875 24.5 12.3875 23.6625 12.8375L15.8 17.0749C15.225 17.3874 14.875 18 14.875 18.675C14.875 19.35 15.225 19.9624 15.8 20.2749L23.6625 24.5125C24.075 24.7375 24.5375 24.85 24.9875 24.85C25.4375 24.85 25.9 24.7375 26.3125 24.5125L34.175 20.2749C34.75 19.9624 35.1 19.35 35.1 18.675C35.125 18 34.7625 17.3874 34.1875 17.0749Z" fill="white"/>
<path opacity="0.4" d="M22.3754 25.9875L15.0629 22.325C14.5004 22.0375 13.8504 22.075 13.3129 22.4C12.7754 22.725 12.4629 23.3 12.4629 23.925V30.8375C12.4629 32.0375 13.1254 33.1125 14.2004 33.65L21.5129 37.3C21.7629 37.425 22.0379 37.4875 22.3129 37.4875C22.6379 37.4875 22.9629 37.4 23.2504 37.2125C23.7879 36.8875 24.1004 36.3125 24.1004 35.6875V28.775C24.1129 27.6 23.4504 26.525 22.3754 25.9875Z" fill="white"/>
<path opacity="0.4" d="M37.5377 23.9371V29.6745C37.5252 29.662 37.5127 29.6371 37.5002 29.6246C37.5002 29.6121 37.4877 29.5995 37.4752 29.587C37.4252 29.512 37.3627 29.4371 37.3002 29.3746C37.2877 29.3621 37.2752 29.3371 37.2627 29.3246C36.2502 28.1996 34.7627 27.4996 33.1252 27.4996C31.5502 27.4996 30.1127 28.1495 29.0877 29.1995C28.1002 30.212 27.5002 31.5996 27.5002 33.1246C27.5002 34.1746 27.8002 35.1746 28.3127 36.0246C28.5252 36.3871 28.7877 36.712 29.0752 37.012L28.4877 37.312C28.2377 37.437 27.9627 37.4996 27.6877 37.4996C27.3627 37.4996 27.0377 37.4121 26.7377 37.2246C26.2127 36.8996 25.8877 36.3246 25.8877 35.6996V28.7995C25.8877 27.5995 26.5502 26.5245 27.6252 25.987L34.9377 22.337C35.5002 22.0495 36.1502 22.0745 36.6877 22.412C37.2127 22.737 37.5377 23.3121 37.5377 23.9371Z" fill="white"/>
<path d="M37.475 29.5878C36.45 28.3253 34.8875 27.5254 33.125 27.5254C31.8 27.5254 30.575 27.9879 29.6125 28.7629C28.3125 29.7879 27.5 31.3754 27.5 33.1504C27.5 34.2004 27.8 35.2004 28.3125 36.0504C28.65 36.6129 29.075 37.1004 29.575 37.5004H29.5875C30.55 38.3004 31.7875 38.7754 33.125 38.7754C34.55 38.7754 35.8375 38.2504 36.825 37.3754C37.2625 37.0004 37.6375 36.5504 37.9375 36.0504C38.45 35.2004 38.75 34.2004 38.75 33.1504C38.75 31.8004 38.275 30.5503 37.475 29.5878ZM35.95 32.4504L32.95 35.2254C32.775 35.3879 32.5375 35.4754 32.3125 35.4754C32.075 35.4754 31.8375 35.3878 31.65 35.2003L30.2625 33.8129C29.9 33.4504 29.9 32.8504 30.2625 32.4879C30.625 32.1254 31.225 32.1254 31.5875 32.4879L32.3375 33.2379L34.675 31.0753C35.05 30.7253 35.65 30.7504 36 31.1254C36.3625 31.5129 36.3375 32.1004 35.95 32.4504Z" fill="white"/>
</svg>
