<svg width="50" height="50" viewBox="0 0 50 50" fill="none" xmlns="http://www.w3.org/2000/svg">
<circle cx="25" cy="25" r="25" fill="#EC1D1D"/>
<path d="M37.0997 29.1508C35.9872 28.0383 34.5123 27.4758 33.0498 27.5008C31.6373 27.5133 30.2248 28.0758 29.1498 29.1508C28.3998 29.8883 27.9123 30.8133 27.6748 31.7758C27.5373 32.3008 27.4872 32.8383 27.5247 33.3758V33.4383C27.5247 33.5258 27.5373 33.6008 27.5498 33.7008C27.5498 33.7008 27.5497 33.7008 27.5622 33.7133V33.7508C27.6747 34.9758 28.1998 36.1633 29.1498 37.1008C30.5998 38.5508 32.6372 39.0383 34.4747 38.5758C35.0247 38.4383 35.5623 38.2133 36.0623 37.9133C36.4373 37.7008 36.7872 37.4258 37.0997 37.1008C38.0372 36.1633 38.5748 34.9758 38.6873 33.7383C38.6998 33.7383 38.6997 33.7133 38.6997 33.7008C38.7247 33.6133 38.7248 33.5133 38.7248 33.4258C38.7248 33.4133 38.7372 33.3883 38.7372 33.3633C38.8122 31.8508 38.2622 30.3008 37.0997 29.1508ZM35.2873 35.2633C34.9248 35.6258 34.3373 35.6258 33.9623 35.2633L33.1373 34.4383L32.2872 35.2883C31.9122 35.6633 31.3247 35.6633 30.9622 35.2883C30.5872 34.9258 30.5872 34.3383 30.9622 33.9633L31.8123 33.1133L30.9873 32.2883C30.6248 31.9133 30.6248 31.3258 30.9873 30.9633C31.3623 30.5883 31.9497 30.5883 32.3247 30.9633L33.1373 31.7883L33.9248 30.9883C34.2998 30.6258 34.8872 30.6258 35.2622 30.9883C35.6247 31.3633 35.6247 31.9508 35.2622 32.3258L34.4623 33.1133L35.2873 33.9258C35.6623 34.3008 35.6623 34.8883 35.2873 35.2633Z" fill="white"/>
<path opacity="0.4" d="M34.1875 17.0749L26.325 12.8375C25.5 12.3875 24.5 12.3875 23.6625 12.8375L15.8 17.0749C15.225 17.3874 14.875 18 14.875 18.675C14.875 19.35 15.225 19.9624 15.8 20.2749L23.6625 24.5125C24.075 24.7375 24.5375 24.85 24.9875 24.85C25.4375 24.85 25.9 24.7375 26.3125 24.5125L34.175 20.2749C34.75 19.9624 35.1 19.35 35.1 18.675C35.125 18 34.7625 17.3874 34.1875 17.0749Z" fill="white"/>
<path opacity="0.4" d="M22.3754 25.9875L15.0629 22.325C14.5004 22.0375 13.8504 22.075 13.3129 22.4C12.7754 22.725 12.4629 23.3 12.4629 23.925V30.8375C12.4629 32.0375 13.1254 33.1125 14.2004 33.65L21.5129 37.3C21.7629 37.425 22.0379 37.4875 22.3129 37.4875C22.6379 37.4875 22.9629 37.4 23.2504 37.2125C23.7879 36.8875 24.1004 36.3125 24.1004 35.6875V28.775C24.1129 27.6 23.4504 26.525 22.3754 25.9875Z" fill="white"/>
<path opacity="0.4" d="M37.5377 23.9371V29.6745C37.5252 29.662 37.5127 29.6371 37.5002 29.6246C37.5002 29.6121 37.4877 29.5995 37.4752 29.587C37.4252 29.512 37.3627 29.4371 37.3002 29.3746C37.2877 29.3621 37.2752 29.3371 37.2627 29.3246C36.2502 28.1996 34.7627 27.4996 33.1252 27.4996C31.5502 27.4996 30.1127 28.1495 29.0877 29.1995C28.1002 30.212 27.5002 31.5996 27.5002 33.1246C27.5002 34.1746 27.8002 35.1746 28.3127 36.0246C28.5252 36.3871 28.7877 36.712 29.0752 37.012L28.4877 37.312C28.2377 37.437 27.9627 37.4996 27.6877 37.4996C27.3627 37.4996 27.0377 37.4121 26.7377 37.2246C26.2127 36.8996 25.8877 36.3246 25.8877 35.6996V28.7995C25.8877 27.5995 26.5502 26.5245 27.6252 25.987L34.9377 22.337C35.5002 22.0495 36.1502 22.0745 36.6877 22.412C37.2127 22.737 37.5377 23.3121 37.5377 23.9371Z" fill="white"/>
</svg>
