<svg width="30" height="30" viewBox="0 0 30 30" fill="none" xmlns="http://www.w3.org/2000/svg">
<path opacity="0.4" d="M20.2375 2.5H9.7625C5.2125 2.5 2.5 5.2125 2.5 9.7625V20.225C2.5 24.7875 5.2125 27.5 9.7625 27.5H20.225C24.775 27.5 27.4875 24.7875 27.4875 20.2375V9.7625C27.5 5.2125 24.7875 2.5 20.2375 2.5Z" fill="#2F66DB"/>
<path d="M22.5 10.625H7.5C6.9875 10.625 6.5625 10.2 6.5625 9.6875C6.5625 9.175 6.9875 8.75 7.5 8.75H22.5C23.0125 8.75 23.4375 9.175 23.4375 9.6875C23.4375 10.2 23.0125 10.625 22.5 10.625Z" fill="#2F66DB"/>
<path d="M20 15.9375H10C9.4875 15.9375 9.0625 15.5125 9.0625 15C9.0625 14.4875 9.4875 14.0625 10 14.0625H20C20.5125 14.0625 20.9375 14.4875 20.9375 15C20.9375 15.5125 20.5125 15.9375 20 15.9375Z" fill="#2F66DB"/>
<path d="M16.6627 21.25H13.3252C12.8127 21.25 12.3877 20.825 12.3877 20.3125C12.3877 19.8 12.8127 19.375 13.3252 19.375H16.6627C17.1752 19.375 17.6002 19.8 17.6002 20.3125C17.6002 20.825 17.1877 21.25 16.6627 21.25Z" fill="#2F66DB"/>
</svg>
