<svg width="76" height="76" viewBox="0 0 76 76" fill="none" xmlns="http://www.w3.org/2000/svg">
<g filter="url(#filter0_d_1243_7661)">
<circle cx="33" cy="32" r="27" fill="#2F66DB"/>
<path opacity="0.4" d="M44.25 44.5H21.75C21.2375 44.5 20.8125 44.075 20.8125 43.5625C20.8125 43.05 21.2375 42.625 21.75 42.625H44.25C44.7625 42.625 45.1875 43.05 45.1875 43.5625C45.1875 44.075 44.7625 44.5 44.25 44.5Z" fill="white"/>
<path opacity="0.4" d="M41.7752 21.3501C39.3502 18.9251 36.9752 18.8626 34.4877 21.3501L32.9752 22.8626C32.8502 22.9876 32.8002 23.1876 32.8502 23.3626C33.8002 26.6751 36.4502 29.3251 39.7627 30.2751C39.8127 30.2876 39.8627 30.3001 39.9127 30.3001C40.0502 30.3001 40.1752 30.2501 40.2752 30.1501L41.7752 28.6376C43.0127 27.4126 43.6127 26.2251 43.6127 25.0251C43.6252 23.7876 43.0252 22.5876 41.7752 21.3501Z" fill="white"/>
<path d="M37.5124 31.4125C37.1499 31.2375 36.7999 31.0625 36.4624 30.8625C36.1874 30.7 35.9249 30.525 35.6624 30.3375C35.4499 30.2 35.1999 30 34.9624 29.8C34.9374 29.7875 34.8499 29.7125 34.7499 29.6125C34.3374 29.2625 33.8749 28.8125 33.4624 28.3125C33.4249 28.2875 33.3624 28.2 33.2749 28.0875C33.1499 27.9375 32.9374 27.6875 32.7499 27.4C32.5999 27.2125 32.4249 26.9375 32.2624 26.6625C32.0624 26.325 31.8874 25.9875 31.7124 25.6375C31.5374 25.2625 31.3999 24.9 31.2749 24.5625L23.4249 32.4125C23.2624 32.575 23.1124 32.8875 23.0749 33.1L22.3999 37.8875C22.2749 38.7375 22.5124 39.5375 23.0374 40.075C23.4874 40.5125 24.1124 40.75 24.7874 40.75C24.9374 40.75 25.0874 40.7375 25.2374 40.7125L30.0374 40.0375C30.2624 40 30.5749 39.85 30.7249 39.6875L38.5749 31.8375C38.2249 31.7125 37.8874 31.575 37.5124 31.4125Z" fill="white"/>
</g>
<defs>
<filter id="filter0_d_1243_7661" x="0" y="0" width="76" height="76" filterUnits="userSpaceOnUse" color-interpolation-filters="sRGB">
<feFlood flood-opacity="0" result="BackgroundImageFix"/>
<feColorMatrix in="SourceAlpha" type="matrix" values="0 0 0 0 0 0 0 0 0 0 0 0 0 0 0 0 0 0 127 0" result="hardAlpha"/>
<feMorphology radius="9" operator="erode" in="SourceAlpha" result="effect1_dropShadow_1243_7661"/>
<feOffset dx="5" dy="6"/>
<feGaussianBlur stdDeviation="10"/>
<feComposite in2="hardAlpha" operator="out"/>
<feColorMatrix type="matrix" values="0 0 0 0 0.352941 0 0 0 0 0.541176 0 0 0 0 0.941176 0 0 0 0.28 0"/>
<feBlend mode="normal" in2="BackgroundImageFix" result="effect1_dropShadow_1243_7661"/>
<feBlend mode="normal" in="SourceGraphic" in2="effect1_dropShadow_1243_7661" result="shape"/>
</filter>
</defs>
</svg>
