<svg width="50" height="50" viewBox="0 0 50 50" fill="none" xmlns="http://www.w3.org/2000/svg">
<circle cx="25" cy="25" r="25" fill="#EC1D1D"/>
<path opacity="0.4" d="M31 21.25H19C15 21.25 12.5 23.75 12.5 27.75V30.9875C12.5 35 15 37.5 19 37.5H30.9875C34.9875 37.5 37.4875 35 37.4875 31V27.75C37.5 23.75 35 21.25 31 21.25Z" fill="white"/>
<path d="M29.8498 16.9633L25.6623 12.7758C25.2998 12.4133 24.6998 12.4133 24.3373 12.7758L20.1498 16.9633C19.7873 17.3258 19.7873 17.9258 20.1498 18.2883C20.5123 18.6508 21.1123 18.6508 21.4748 18.2883L24.0623 15.7008V29.0633C24.0623 29.5758 24.4873 30.0008 24.9998 30.0008C25.5123 30.0008 25.9373 29.5758 25.9373 29.0633V15.7008L28.5248 18.2883C28.7123 18.4758 28.9498 18.5633 29.1873 18.5633C29.4248 18.5633 29.6623 18.4758 29.8498 18.2883C30.2248 17.9258 30.2248 17.3383 29.8498 16.9633Z" fill="white"/>
</svg>
